<?xml version="1.0" encoding="UTF-8" standalone="no"?>
<!DOCTYPE svg PUBLIC "-//W3C//DTD SVG 1.1//EN" "http://www.w3.org/Graphics/SVG/1.1/DTD/svg11.dtd">
<svg width="100%" height="100%" viewBox="0 0 736 350" version="1.1" xmlns="http://www.w3.org/2000/svg" xmlns:xlink="http://www.w3.org/1999/xlink" xml:space="preserve" xmlns:serif="http://www.serif.com/" style="fill-rule:evenodd;clip-rule:evenodd;stroke-linejoin:round;stroke-miterlimit:2;">
    <g id="Logo" transform="matrix(0.70857,0,0,0.70857,-5969.58,-4895.11)">
        <g transform="matrix(0.870768,0,0,0.870768,7641.7,5661.75)">
            <g transform="matrix(1.07143,0,0,1.07143,563.488,202.258)">
                <path d="M556.749,1578.7C556.749,1572.19 554.833,1567.6 551.001,1564.53C546.786,1567.6 541.804,1569.13 536.823,1569.13C526.476,1569.13 516.896,1560.31 508.083,1543.07C499.269,1525.43 492.372,1504.74 486.624,1480.59C480.876,1456.44 477.427,1434.59 475.894,1415.42L475.463,1402.44L509.232,1331.89C511.148,1327.67 516.513,1325.75 519.962,1325.75L518.812,1320.05L468.613,1320.05L467.464,1325.75C468.997,1325.75 470.529,1327.67 470.529,1329.59C470.529,1330.35 470.529,1331.12 470.146,1331.51L429.91,1410.44L429.91,1340.33C429.91,1332.65 432.593,1329.2 437.574,1326.13L436.808,1320.43C430.677,1320.43 426.848,1318.13 417.279,1310.85C403.5,1300.12 393.548,1294.38 376.68,1294.38C341.783,1294.38 313.466,1322.69 313.466,1357.2C313.466,1382.11 327.624,1399.33 345.61,1399.33C359.415,1399.33 369.007,1389.76 369.007,1376.37C369.007,1375.61 368.623,1373.69 367.856,1370.63C365.938,1371.4 364.019,1371.78 362.101,1371.78C354.428,1371.78 347.906,1365.26 347.906,1354.52C347.906,1339.56 359.799,1328.82 373.995,1328.82C378.982,1328.82 383.586,1329.97 387.806,1332.65L387.806,1525.43C387.806,1571.04 378.215,1593.22 354.044,1602.04L354.044,1607.79C357.881,1609.7 362.868,1610.85 368.623,1610.85C383.586,1610.85 393.548,1605.49 407.71,1595.14C419.576,1586.33 427.231,1582.49 436.808,1582.49L437.574,1576.79C431.443,1573.73 429.91,1567.21 429.91,1554.56L429.91,1472.92L443.322,1448.77C461.333,1555.71 488.54,1608.93 525.71,1608.93C544.104,1608.93 556.749,1593.62 556.749,1578.7Z" style="fill:rgb(0,56,101);fill-rule:nonzero;"/>
            </g>
            <g transform="matrix(1,0,0,1,600.175,317.322)">
                <path d="M656.764,1498.58C652.166,1495.89 649.1,1492.43 649.1,1482.82L649.1,1377.54C649.1,1367.93 652.549,1360.24 656.764,1358.32L655.998,1352.62L607.754,1352.62L606.987,1358.32C611.207,1360.24 614.66,1367.93 614.66,1377.54L614.66,1490.89C614.66,1504.73 605.453,1513.95 593.56,1513.95C581.667,1513.95 572.46,1504.73 572.46,1490.89L572.46,1377.54C572.46,1367.93 575.913,1360.24 580.133,1358.32L579.366,1352.62L527.291,1352.62L526.524,1358.32C530.74,1360.24 534.188,1367.93 534.188,1377.54L534.188,1482.82C534.188,1492.43 531.123,1495.89 526.524,1498.58L527.291,1504.34C530.74,1504.34 533.805,1507.8 540.312,1518.16L545.67,1525.81C556.003,1539.59 573.228,1548.39 591.642,1548.39C610.056,1548.39 627.288,1539.59 637.62,1525.81L642.977,1518.16C649.483,1508.57 652.549,1504.34 655.998,1504.34L656.764,1498.58Z" style="fill:rgb(0,56,101);fill-rule:nonzero;"/>
            </g>
            <g transform="matrix(1,0,0,1,3.91823,107.966)">
                <path d="M1518.59,1596.42L1519.36,1604.54L1513.66,1605.32C1510.97,1601.06 1503.28,1596.42 1493.69,1596.42L1457.66,1596.42L1457.66,1641.68L1471.48,1641.68C1479.92,1641.68 1485.68,1638.6 1489.13,1632.82L1494.83,1633.59L1494.83,1684.18L1489.13,1684.94C1485.68,1679.19 1479.92,1676.12 1471.48,1676.12L1457.66,1676.12L1457.66,1729.04C1457.66,1738.63 1461.12,1746.3 1465.34,1748.21L1464.57,1753.91L1412.49,1753.91L1411.73,1748.21C1415.94,1746.3 1419.39,1738.63 1419.39,1729.04L1419.39,1586.95C1419.39,1577.31 1415.94,1569.61 1411.73,1567.68L1412.49,1561.98L1515.94,1561.98L1518.59,1596.42Z" style="fill:rgb(0,56,101);"/>
            </g>
            <g transform="matrix(1,0,0,1,577.675,317.322)">
                <path d="M1095.14,1498.58C1090.55,1495.89 1087.48,1492.43 1087.48,1482.82L1087.48,1377.54C1087.48,1367.93 1090.93,1360.24 1095.14,1358.32L1094.38,1352.62L1051.88,1352.62L1051.11,1358.32C1055.33,1360.24 1058.78,1367.93 1058.78,1377.54L1058.78,1490.89C1058.78,1504.73 1043.83,1516.25 1031.94,1516.25C1020.05,1516.25 1005.1,1504.73 1005.1,1490.89L1005.1,1377.54C1005.1,1367.93 1008.55,1360.24 1012.77,1358.32L1012,1352.62L965.67,1352.62L964.904,1358.32C969.119,1360.24 972.568,1367.93 972.568,1377.54L972.568,1482.82C972.568,1492.43 969.502,1495.89 964.904,1498.58L965.67,1504.34C969.119,1504.34 972.185,1507.8 978.692,1518.16L984.05,1525.81C994.383,1539.59 1011.61,1548.39 1030.02,1548.39C1048.44,1548.39 1065.67,1539.59 1076,1525.81L1081.36,1518.16C1087.86,1508.57 1090.93,1504.34 1094.38,1504.34L1095.14,1498.58Z" style="fill:rgb(0,56,101);fill-rule:nonzero;"/>
            </g>
            <g transform="matrix(1,0,0,1,577.675,317.322)">
                <path d="M974.867,1298.95C974.867,1311.58 985.203,1322.68 998.602,1322.68C1011.24,1322.68 1022.34,1311.58 1022.34,1298.95C1022.34,1285.55 1011.24,1275.22 998.602,1275.22C985.203,1275.22 974.867,1285.55 974.867,1298.95ZM1037.71,1298.95C1037.71,1311.58 1048.05,1322.68 1061.45,1322.68C1074.08,1322.68 1085.18,1311.58 1085.18,1298.95C1085.18,1285.55 1074.08,1275.22 1061.45,1275.22C1048.05,1275.22 1037.71,1285.55 1037.71,1298.95Z" style="fill:rgb(0,56,101);fill-rule:nonzero;"/>
            </g>
            <g transform="matrix(1,0,0,1,568.31,317.322)">
                <path d="M1253.02,1538.86C1249.57,1536.94 1244.98,1530.02 1241.92,1520.41L1222.02,1456.62C1240,1442.4 1248.81,1425.49 1248.81,1406.66C1248.81,1375.96 1226.23,1352.62 1188.28,1352.62L1126.61,1352.62L1125.85,1358.32C1130.06,1360.24 1133.51,1367.92 1133.51,1377.53L1133.51,1519.65C1133.51,1529.25 1130.06,1536.94 1125.85,1538.86L1126.61,1544.56L1178.69,1544.56L1179.46,1538.86C1175.24,1536.94 1171.78,1529.25 1171.78,1519.65L1171.78,1477.01C1178.31,1476.25 1184.06,1475.09 1188.67,1473.17L1202.86,1521.19C1203.63,1523.49 1204.01,1525.41 1204.01,1527.33C1204.01,1533.1 1201.33,1537.32 1198.26,1538.86L1199.03,1544.56L1252.26,1544.56L1253.02,1538.86ZM1171.78,1387.06L1186.36,1387.06C1200.56,1387.06 1208.62,1395.52 1208.62,1407.43C1208.62,1424.34 1191.74,1440.09 1171.78,1445.09L1171.78,1387.06Z" style="fill:rgb(0,56,101);fill-rule:nonzero;"/>
            </g>
            <g transform="matrix(1,0,0,1,564.862,317.322)">
                <path d="M1384.84,1486.73C1384.84,1461.82 1371.45,1442.27 1345.04,1427.7C1320.47,1413.9 1314.33,1410.06 1314.33,1399.33C1314.33,1388.98 1321.24,1383.61 1335.06,1383.61C1350.39,1383.61 1360.75,1390.13 1365.73,1403.55L1370.66,1403.55L1370.66,1349.94L1364.96,1349.17C1364.2,1350.71 1362.28,1351.47 1359.21,1351.47C1357.68,1351.47 1355,1351.09 1350.78,1350.71C1345.04,1349.56 1340.43,1349.17 1336.59,1349.17C1299.41,1349.17 1276.06,1371.75 1276.06,1402.78C1276.06,1424.63 1288.69,1438.05 1313.57,1451.85C1335.06,1463.73 1346.57,1474.85 1346.57,1489.8C1346.57,1503.22 1337.36,1513.95 1322.01,1513.95C1303.23,1513.95 1288.66,1498.62 1282.15,1473.7L1274.91,1473.7L1274.91,1544.56L1281,1545.32C1282.15,1542.65 1285.21,1541.5 1289.43,1541.5C1292.5,1541.5 1295.95,1542.27 1299.78,1543.8C1307.07,1546.86 1314.74,1548.39 1322.02,1548.39C1357.67,1548.39 1384.84,1520.84 1384.84,1486.73Z" style="fill:rgb(0,56,101);fill-rule:nonzero;"/>
            </g>
            <g transform="matrix(1.03453,0,0,1.03453,511.677,269.222)">
                <path d="M1524.33,1395.13L1520.88,1352.62L1404.43,1352.62L1400.99,1395.13L1406.73,1395.9C1409.41,1391.67 1417.08,1387.06 1426.66,1387.06L1443.52,1387.06L1443.52,1519.64C1443.52,1529.25 1440.07,1536.94 1435.86,1538.86L1436.62,1544.56L1488.69,1544.56L1489.46,1538.86C1485.24,1536.94 1481.79,1529.25 1481.79,1519.64L1481.79,1387.06L1498.65,1387.06C1508.23,1387.06 1515.9,1391.67 1518.58,1395.9L1524.33,1395.13Z" style="fill:rgb(0,56,101);fill-rule:nonzero;"/>
            </g>
            <g transform="matrix(1,0,0,1,585.305,317.322)">
                <path d="M814.642,1538.86C811.193,1536.94 806.6,1530.02 803.538,1520.41L783.635,1456.62C801.624,1442.4 810.427,1425.49 810.427,1406.66C810.427,1375.96 787.845,1352.62 749.903,1352.62L688.234,1352.62L687.468,1358.32C691.683,1360.24 695.132,1367.92 695.132,1377.53L695.132,1519.65C695.132,1529.25 691.683,1536.94 687.468,1538.86L688.234,1544.56L740.31,1544.56L741.078,1538.86C736.857,1536.94 733.404,1529.25 733.404,1519.65L733.404,1477.01C739.927,1476.25 745.682,1475.09 750.287,1473.17L764.483,1521.19C765.251,1523.49 765.634,1525.41 765.634,1527.33C765.634,1533.1 762.949,1537.32 759.879,1538.86L760.646,1544.56L813.876,1544.56L814.642,1538.86ZM733.404,1387.06L747.984,1387.06C762.181,1387.06 770.239,1395.52 770.239,1407.43C770.239,1424.34 753.356,1440.09 733.404,1445.09L733.404,1387.06Z" style="fill:rgb(0,56,101);fill-rule:nonzero;"/>
            </g>
            <g transform="matrix(0.428206,0,0,0.428206,1376.89,1231.95)">
                <g transform="matrix(1,0,0,1,0,220.856)">
                    <path d="M1202.07,726.734C1202.07,726.734 1131.55,717.998 1047.69,732.781L1015.23,662.09C1015.23,662.09 1157.19,693.477 1202.07,633.292C1246.95,693.477 1388.91,662.09 1388.91,662.09L1356.46,732.781C1272.6,717.998 1202.07,726.734 1202.07,726.734Z" style="fill:rgb(0,56,101);"/>
                </g>
                <g transform="matrix(1,0,0,1,9.99717,0)">
                    <g transform="matrix(1,0,0,1,0,220.856)">
                        <path d="M1140.91,605.66C1148.53,614.268 1147.73,627.446 1139.12,635.068C1130.51,642.69 1117.34,641.89 1109.71,633.281C1098.21,619.89 1088.6,599.999 1084.31,578.079C1078.22,546.934 1081.42,512.319 1097.09,490.371C1113.89,466.844 1143.76,453.234 1190.99,475.686C1195.91,477.553 1198.4,483.068 1196.53,487.995C1194.66,492.922 1189.15,495.406 1184.22,493.539C1152.09,484.28 1133.87,491.504 1125.14,507.804C1117.81,521.511 1117.8,540.298 1120.99,558.446C1122.93,569.403 1126.54,580.003 1130.9,589.339C1133.82,595.593 1137.04,601.278 1140.91,605.66Z" style="fill:rgb(195,173,139);"/>
                    </g>
                    <g transform="matrix(-1,0,0,1,2384.15,220.856)">
                        <path d="M1109.71,633.281C1117.34,641.89 1130.51,642.69 1139.12,635.068C1147.73,627.446 1148.53,614.268 1140.91,605.66C1137.04,601.278 1133.82,595.593 1130.9,589.339C1126.54,580.003 1122.93,569.403 1120.99,558.446C1117.8,540.298 1117.81,521.511 1125.14,507.804C1133.87,491.504 1152.09,484.28 1184.22,493.539C1189.15,495.406 1194.66,492.922 1196.53,487.995C1198.4,483.068 1195.91,477.553 1190.99,475.686C1143.76,453.234 1113.89,466.844 1097.09,490.371C1081.42,512.319 1078.22,546.934 1084.31,578.079C1088.6,599.999 1098.21,619.89 1109.71,633.281Z" style="fill:rgb(195,173,139);"/>
                    </g>
                    <g transform="matrix(1.6,0,0,1,-700.227,258.078)">
                        <path d="M1188.94,415.271C1195.65,415.866 1169.74,415.866 1176.45,415.271L1176.45,385.041L1166.75,385.041L1166.75,370.412L1176.45,370.412L1176.45,352.393L1188.94,352.393L1188.94,370.412L1198.64,370.412L1198.64,385.041L1188.94,385.041L1188.94,415.271Z" style="fill:rgb(195,173,139);"/>
                    </g>
                    <g transform="matrix(1,0,0,1,0,220.856)">
                        <path d="M1192.08,544.715C1192.08,544.715 1172.08,526.372 1155.93,517.312C1140.81,508.826 1165.88,499.826 1175.35,492.477C1184.94,485.025 1160.22,444.521 1160.22,444.521C1176.17,448.876 1185.27,445.789 1192.08,440.24C1198.9,445.789 1207.99,448.876 1223.95,444.521C1223.95,444.521 1199.22,485.025 1208.82,492.477C1218.29,499.826 1243.35,508.826 1228.23,517.312C1212.08,526.372 1192.08,544.715 1192.08,544.715Z" style="fill:rgb(195,173,139);"/>
                    </g>
                </g>
                <g transform="matrix(1,0,0,1,5.98717,0)">
                    <g>
                        <g transform="matrix(1,0,0,1,0,220.856)">
                            <path d="M1025.26,559.354C1008.66,511.841 937.921,525.668 926.875,562.213C923.56,573.179 926.179,587.758 932.804,596.26C938.177,603.154 964.674,633.271 967.627,580.916C968.141,571.801 975.86,564.914 983.043,561.233C990.965,557.174 1002.77,558.763 1011.32,558.912C1014.23,558.963 1017.11,559.354 1020.01,559.446C1021.76,559.501 1025.84,561.007 1025.26,559.354Z" style="fill:rgb(195,173,139);"/>
                        </g>
                        <g transform="matrix(0.649613,0,0,0.808224,391.7,371.264)">
                            <path d="M1025.26,559.354C1008.66,511.841 937.921,525.668 926.875,562.213C923.56,573.179 926.179,587.758 932.804,596.26C938.177,603.154 964.674,633.271 967.627,580.916C968.141,571.801 975.86,564.914 983.043,561.233C990.965,557.174 1002.77,558.763 1011.32,558.912C1014.23,558.963 1017.11,559.354 1020.01,559.446C1021.76,559.501 1025.84,561.007 1025.26,559.354Z" style="fill:rgb(195,173,139);"/>
                        </g>
                    </g>
                    <g>
                        <g transform="matrix(-1,0,0,1,2392.17,220.856)">
                            <path d="M1025.26,559.354C1008.66,511.841 937.921,525.668 926.875,562.213C923.56,573.179 926.179,587.758 932.804,596.26C938.177,603.154 964.674,633.271 967.627,580.916C968.141,571.801 975.86,564.914 983.043,561.233C990.965,557.174 1002.77,558.763 1011.32,558.912C1014.23,558.963 1017.11,559.354 1020.01,559.446C1021.76,559.501 1025.84,561.007 1025.26,559.354Z" style="fill:rgb(195,173,139);"/>
                        </g>
                        <g transform="matrix(-0.649613,0,0,0.808224,2000.47,371.264)">
                            <path d="M1025.26,559.354C1008.66,511.841 937.921,525.668 926.875,562.213C923.56,573.179 926.179,587.758 932.804,596.26C938.177,603.154 964.674,633.271 967.627,580.916C968.141,571.801 975.86,564.914 983.043,561.233C990.965,557.174 1002.77,558.763 1011.32,558.912C1014.23,558.963 1017.11,559.354 1020.01,559.446C1021.76,559.501 1025.84,561.007 1025.26,559.354Z" style="fill:rgb(195,173,139);"/>
                        </g>
                    </g>
                </g>
            </g>
            <g transform="matrix(1.46923,0,0,1.46923,-321.9,-1795.98)">
                <path d="M1034.12,2519.83C1034.12,2522.44 1035.67,2524.3 1039.43,2525.29C1035.97,2526.54 1034.95,2527.83 1034.95,2529.23C1034.99,2530.49 1035.71,2531.39 1036.96,2531.93C1034.42,2532.72 1032.94,2534.28 1032.94,2536.02C1032.94,2539.06 1037.04,2540.69 1041.85,2540.69C1048.99,2540.69 1053.12,2537.47 1053.12,2533.52C1053.12,2530.14 1050.16,2528.28 1045.68,2528.28L1041.78,2528.28C1040.34,2528.28 1039.88,2527.91 1039.88,2527.34C1039.88,2526.62 1040.6,2526.09 1042.8,2525.78C1048.15,2525.21 1050.84,2522.33 1050.84,2518.73C1050.84,2517.85 1050.58,2516.98 1049.86,2515.73C1051.38,2516.37 1052.25,2516.53 1053.01,2516.53C1053.31,2516.53 1053.5,2516.49 1053.73,2516.45L1053.73,2512.85C1052.36,2513 1051.11,2513.11 1049.71,2513.11C1047.54,2513.11 1045.15,2512.69 1043.07,2512.69C1037.91,2512.69 1034.12,2515.77 1034.12,2519.83ZM1038.82,2519.14C1038.82,2516.79 1040.41,2515.24 1042.42,2515.24C1044.39,2515.24 1046.06,2516.75 1046.06,2519.37C1046.06,2521.76 1044.59,2523.32 1042.5,2523.32C1040.18,2523.32 1038.82,2521.27 1038.82,2519.14ZM1037.38,2534.58C1037.38,2533.56 1037.91,2532.88 1038.59,2532.34C1039.08,2532.42 1039.65,2532.46 1040.26,2532.46L1044.02,2532.46C1046.86,2532.46 1048.34,2533.44 1048.34,2534.96C1048.34,2536.59 1046.44,2537.84 1042.99,2537.84C1039.46,2537.84 1037.38,2536.52 1037.38,2534.58Z" style="fill:rgb(195,173,139);fill-rule:nonzero;"/>
                <path d="M1054.71,2513.41L1054.71,2514.82L1055.62,2515.01C1056.76,2515.27 1057.03,2515.5 1057.18,2516.6L1057.29,2517.4C1057.44,2518.65 1057.52,2519.75 1057.52,2520.96C1057.52,2522.06 1057.44,2523.13 1057.44,2524.8C1057.44,2528.55 1059.45,2530.9 1062.79,2530.9C1064.99,2530.9 1067.12,2529.73 1068.79,2527.6L1069.47,2530.9C1071.33,2530.52 1073.04,2530.18 1074.86,2529.84L1075.8,2529.69L1075.8,2528.36L1074.78,2528.21C1073.64,2528.02 1073.34,2527.79 1073.22,2526.58L1073.15,2525.74C1073,2524.45 1073,2523.16 1073,2521.95L1073,2521.15C1073,2518.35 1073.04,2515.54 1073.15,2512.73L1065.41,2513.41L1065.41,2514.82L1066.51,2515.01C1067.65,2515.24 1067.91,2515.5 1068.07,2516.6L1068.18,2517.4C1068.37,2518.76 1068.41,2519.98 1068.41,2521.15L1068.41,2523.58C1068.41,2524.45 1068.41,2525.33 1068.44,2526.24C1067.5,2526.69 1066.55,2526.96 1065.52,2526.96C1063.36,2526.96 1062.11,2525.82 1062.11,2523.2L1062.11,2521.15C1062.11,2518.35 1062.15,2515.54 1062.26,2512.73L1054.71,2513.41Z" style="fill:rgb(195,173,139);fill-rule:nonzero;"/>
                <path d="M1077.13,2516.56L1080.05,2516.56L1079.9,2525.25C1079.86,2528.78 1081.53,2530.9 1085.17,2530.9C1087.34,2530.9 1089.19,2530.18 1090.48,2529.08L1091.09,2527.07C1090.18,2527.22 1089.31,2527.3 1088.28,2527.3C1085.7,2527.3 1084.57,2526.2 1084.57,2523.32L1084.57,2516.56L1090.79,2516.56L1090.79,2513.11L1084.57,2513.11C1084.64,2511.82 1084.76,2510.19 1084.79,2509.17L1082.97,2509.17C1082.59,2509.96 1081.95,2510.84 1081.19,2511.78L1080.7,2512.43C1079.9,2513.49 1079.18,2514.1 1077.93,2514.78L1077.13,2515.2L1077.13,2516.56Z" style="fill:rgb(195,173,139);fill-rule:nonzero;"/>
                <path d="M1094.24,2527.91C1094.24,2529.58 1095.53,2530.9 1097.58,2530.9C1099.55,2530.9 1101.11,2529.54 1101.11,2527.6C1101.11,2525.93 1099.85,2524.64 1097.81,2524.64C1095.8,2524.64 1094.24,2525.97 1094.24,2527.91Z" style="fill:rgb(195,173,139);fill-rule:nonzero;"/>
            </g>
            <g transform="matrix(1.46923,0,0,1.46923,-203.113,-1795.98)">
                <path d="M1051.98,2520.39C1051.98,2515.54 1048.76,2512.66 1045.19,2512.66C1043.07,2512.66 1041.06,2513.68 1039.62,2515.46C1039.65,2514.25 1039.65,2512.73 1039.65,2511.78C1039.65,2508.64 1039.69,2505.45 1039.84,2502.34C1037.76,2502.87 1035.29,2503.4 1033.13,2503.82L1032.26,2504.01L1032.26,2505.34L1033.24,2505.49C1034.38,2505.72 1034.72,2505.98 1034.84,2507.16L1034.91,2507.99C1035.03,2509.36 1035.06,2510.53 1035.06,2511.75L1035.06,2522.14C1035.06,2524.45 1034.99,2527.37 1034.8,2529.99C1036.81,2530.49 1038.97,2530.9 1041.44,2530.9C1047.54,2530.9 1051.98,2526.39 1051.98,2520.39ZM1039.65,2519.64C1039.65,2518.84 1039.65,2518.04 1039.62,2517.25C1040.56,2516.72 1041.44,2516.53 1042.35,2516.49C1045.08,2516.49 1047.01,2518.35 1047.01,2522.03C1047.01,2525.59 1045.08,2527.72 1042.23,2527.72C1041.44,2527.72 1040.53,2527.56 1039.65,2527.22L1039.65,2519.64Z" style="fill:rgb(195,173,139);fill-rule:nonzero;"/>
                <path d="M1057.03,2506.4C1057.03,2507.88 1058.24,2509.09 1060.06,2509.09C1061.84,2509.09 1063.32,2507.84 1063.32,2506.09C1063.32,2504.62 1062.15,2503.44 1060.33,2503.44C1058.51,2503.44 1057.03,2504.69 1057.03,2506.4ZM1065.79,2506.4C1065.79,2507.88 1067,2509.09 1068.82,2509.09C1070.64,2509.09 1072.09,2507.84 1072.09,2506.09C1072.09,2504.62 1070.91,2503.44 1069.09,2503.44C1067.27,2503.44 1065.79,2504.69 1065.79,2506.4ZM1053.88,2513.41L1053.88,2514.82L1054.79,2515.01C1055.93,2515.27 1056.19,2515.5 1056.34,2516.6L1056.46,2517.4C1056.61,2518.65 1056.68,2519.75 1056.68,2520.96C1056.68,2522.06 1056.61,2523.13 1056.61,2524.8C1056.61,2528.55 1058.62,2530.9 1061.96,2530.9C1064.16,2530.9 1066.28,2529.73 1067.95,2527.6L1068.63,2530.9C1070.49,2530.52 1072.2,2530.18 1074.02,2529.84L1074.97,2529.69L1074.97,2528.36L1073.94,2528.21C1072.81,2528.02 1072.5,2527.79 1072.39,2526.58L1072.31,2525.74C1072.16,2524.45 1072.16,2523.16 1072.16,2521.95L1072.16,2521.15C1072.16,2518.35 1072.2,2515.54 1072.31,2512.73L1064.58,2513.41L1064.58,2514.82L1065.68,2515.01C1066.81,2515.24 1067.08,2515.5 1067.23,2516.6L1067.35,2517.4C1067.53,2518.76 1067.57,2519.98 1067.57,2521.15L1067.57,2523.58C1067.57,2524.45 1067.57,2525.33 1067.61,2526.24C1066.66,2526.69 1065.71,2526.96 1064.69,2526.96C1062.53,2526.96 1061.28,2525.82 1061.28,2523.2L1061.28,2521.15C1061.28,2518.35 1061.31,2515.54 1061.43,2512.73L1053.88,2513.41Z" style="fill:rgb(195,173,139);fill-rule:nonzero;"/>
                <path d="M1076.98,2530.52C1078.69,2530.49 1080.2,2530.45 1081.91,2530.45C1083.62,2530.45 1086.2,2530.49 1087.9,2530.52L1087.9,2529.01L1086.08,2528.74C1084.98,2528.59 1084.64,2528.4 1084.57,2527.22L1084.49,2526.43C1084.41,2525.1 1084.38,2523.92 1084.38,2522.71L1084.38,2520.93C1084.38,2519.94 1084.38,2518.91 1084.34,2517.89C1085.63,2517.51 1086.73,2517.28 1088.25,2517.28C1089.08,2517.28 1089.76,2517.32 1090.56,2517.4L1091.17,2512.81C1090.71,2512.69 1090.45,2512.66 1090.14,2512.66C1088.02,2512.66 1085.78,2513.76 1084.26,2516.22L1083.5,2512.66C1081.49,2513.22 1079.33,2513.79 1077.74,2514.14L1076.98,2514.33L1076.98,2515.65L1077.97,2515.8C1079.1,2516.03 1079.44,2516.3 1079.56,2517.47L1079.63,2518.31C1079.75,2519.67 1079.79,2520.85 1079.79,2522.06L1079.79,2522.71C1079.79,2523.92 1079.75,2525.06 1079.63,2526.43L1079.56,2527.22C1079.44,2528.4 1079.1,2528.63 1077.97,2528.82L1076.98,2529.01L1076.98,2530.52Z" style="fill:rgb(195,173,139);fill-rule:nonzero;"/>
                <path d="M1093.14,2519.83C1093.14,2522.44 1094.69,2524.3 1098.45,2525.29C1095,2526.54 1093.97,2527.83 1093.97,2529.23C1094.01,2530.49 1094.73,2531.39 1095.98,2531.93C1093.44,2532.72 1091.96,2534.28 1091.96,2536.02C1091.96,2539.06 1096.06,2540.69 1100.88,2540.69C1108.01,2540.69 1112.14,2537.47 1112.14,2533.52C1112.14,2530.14 1109.18,2528.28 1104.71,2528.28L1100.8,2528.28C1099.36,2528.28 1098.9,2527.91 1098.9,2527.34C1098.9,2526.62 1099.63,2526.09 1101.83,2525.78C1107.17,2525.21 1109.87,2522.33 1109.87,2518.73C1109.87,2517.85 1109.6,2516.98 1108.88,2515.73C1110.4,2516.37 1111.27,2516.53 1112.03,2516.53C1112.33,2516.53 1112.52,2516.49 1112.75,2516.45L1112.75,2512.85C1111.38,2513 1110.13,2513.11 1108.73,2513.11C1106.57,2513.11 1104.18,2512.69 1102.09,2512.69C1096.93,2512.69 1093.14,2515.77 1093.14,2519.83ZM1097.84,2519.14C1097.84,2516.79 1099.44,2515.24 1101.45,2515.24C1103.42,2515.24 1105.09,2516.75 1105.09,2519.37C1105.09,2521.76 1103.61,2523.32 1101.52,2523.32C1099.21,2523.32 1097.84,2521.27 1097.84,2519.14ZM1096.4,2534.58C1096.4,2533.56 1096.93,2532.88 1097.62,2532.34C1098.11,2532.42 1098.68,2532.46 1099.28,2532.46L1103.04,2532.46C1105.88,2532.46 1107.36,2533.44 1107.36,2534.96C1107.36,2536.59 1105.47,2537.84 1102.02,2537.84C1098.49,2537.84 1096.4,2536.52 1096.4,2534.58Z" style="fill:rgb(195,173,139);fill-rule:nonzero;"/>
                <path d="M1129.18,2528.28L1129.78,2526.27C1128.15,2526.99 1126.67,2527.34 1124.89,2527.34C1121.44,2527.34 1119.2,2525.33 1119.12,2521.34L1129.86,2521.34C1130.88,2515.96 1127.96,2512.66 1123.41,2512.66C1117.95,2512.66 1114.27,2517.25 1114.27,2522.67C1114.27,2527.72 1117.72,2530.9 1122.65,2530.9C1125.35,2530.9 1127.66,2529.92 1129.18,2528.28ZM1122.5,2515.8C1124.4,2515.8 1125.31,2516.91 1125.46,2519.75L1119.16,2519.75C1119.5,2516.98 1120.79,2515.8 1122.5,2515.8Z" style="fill:rgb(195,173,139);fill-rule:nonzero;"/>
                <path d="M1132.67,2530.52C1134.37,2530.49 1135.89,2530.45 1137.6,2530.45C1139.3,2530.45 1141.88,2530.49 1143.59,2530.52L1143.59,2529.01L1141.77,2528.74C1140.67,2528.59 1140.33,2528.4 1140.25,2527.22L1140.18,2526.43C1140.1,2525.1 1140.06,2523.92 1140.06,2522.71L1140.06,2520.93C1140.06,2519.94 1140.06,2518.91 1140.03,2517.89C1141.31,2517.51 1142.41,2517.28 1143.93,2517.28C1144.77,2517.28 1145.45,2517.32 1146.25,2517.4L1146.85,2512.81C1146.4,2512.69 1146.13,2512.66 1145.83,2512.66C1143.7,2512.66 1141.47,2513.76 1139.95,2516.22L1139.19,2512.66C1137.18,2513.22 1135.02,2513.79 1133.42,2514.14L1132.67,2514.33L1132.67,2515.65L1133.65,2515.8C1134.79,2516.03 1135.13,2516.3 1135.25,2517.47L1135.32,2518.31C1135.43,2519.67 1135.47,2520.85 1135.47,2522.06L1135.47,2522.71C1135.47,2523.92 1135.43,2525.06 1135.32,2526.43L1135.25,2527.22C1135.13,2528.4 1134.79,2528.63 1133.65,2528.82L1132.67,2529.01L1132.67,2530.52Z" style="fill:rgb(195,173,139);fill-rule:nonzero;"/>
                <path d="M1147.84,2530.52C1149.55,2530.49 1151.1,2530.45 1152.81,2530.45C1154.52,2530.45 1156.34,2530.49 1158.04,2530.52L1158.04,2529.01L1156.94,2528.82C1155.81,2528.63 1155.5,2528.4 1155.43,2527.22L1155.35,2526.43C1155.27,2525.1 1155.24,2523.92 1155.24,2522.71L1155.24,2511.75C1155.24,2508.64 1155.27,2505.45 1155.43,2502.34C1153.34,2502.87 1150.87,2503.4 1148.71,2503.82L1147.84,2504.01L1147.84,2505.34L1148.83,2505.49C1149.96,2505.72 1150.31,2505.98 1150.42,2507.16L1150.49,2507.99C1150.61,2509.36 1150.65,2510.53 1150.65,2511.75L1150.65,2522.71C1150.65,2523.92 1150.61,2525.06 1150.49,2526.43L1150.42,2527.22C1150.31,2528.4 1149.96,2528.63 1148.83,2528.82L1147.84,2529.01L1147.84,2530.52Z" style="fill:rgb(195,173,139);fill-rule:nonzero;"/>
                <path d="M1161.57,2506.51C1161.57,2508.07 1162.79,2509.32 1164.72,2509.32C1166.62,2509.32 1168.13,2508.03 1168.13,2506.21C1168.13,2504.65 1166.92,2503.44 1164.95,2503.44C1163.09,2503.44 1161.57,2504.69 1161.57,2506.51ZM1159.83,2530.52C1161.53,2530.49 1163.13,2530.45 1164.83,2530.45C1166.54,2530.45 1168.32,2530.49 1170.03,2530.52L1170.03,2529.01L1168.93,2528.82C1167.79,2528.63 1167.49,2528.4 1167.41,2527.22L1167.34,2526.43C1167.26,2525.1 1167.22,2523.92 1167.22,2522.71L1167.22,2522.06C1167.22,2518.95 1167.26,2515.77 1167.41,2512.66C1165.33,2513.19 1162.82,2513.72 1160.66,2514.14L1159.83,2514.33L1159.83,2515.65L1160.81,2515.8C1161.95,2516.03 1162.29,2516.3 1162.4,2517.47L1162.48,2518.31C1162.6,2519.67 1162.63,2520.85 1162.63,2522.06L1162.63,2522.71C1162.63,2523.92 1162.6,2525.06 1162.48,2526.43L1162.4,2527.22C1162.29,2528.4 1161.99,2528.59 1160.81,2528.82L1159.83,2529.01L1159.83,2530.52Z" style="fill:rgb(195,173,139);fill-rule:nonzero;"/>
                <path d="M1186.23,2513.11C1185.28,2512.85 1184.41,2512.66 1182.96,2512.66C1176.52,2512.66 1172,2517.25 1172,2522.94C1172,2528.32 1175.83,2530.9 1180.12,2530.9C1182.78,2530.9 1185.01,2529.65 1186.15,2528.44L1186.76,2526.43C1185.09,2526.99 1183.91,2527.22 1182.28,2527.22C1179.25,2527.22 1176.93,2525.29 1176.93,2521.68C1176.93,2518.35 1178.91,2516.34 1181.83,2516.34C1183.34,2516.34 1184.56,2516.64 1186.23,2517.21L1186.23,2513.11Z" style="fill:rgb(195,173,139);fill-rule:nonzero;"/>
                <path d="M1188.81,2530.52C1190.51,2530.49 1192.03,2530.45 1193.74,2530.45C1195.44,2530.45 1196.77,2530.49 1198.48,2530.52L1198.48,2529.01L1197.61,2528.85C1196.58,2528.7 1196.39,2528.51 1196.32,2527.34L1196.28,2526.5C1196.24,2525.21 1196.2,2523.92 1196.2,2522.71L1196.2,2519.52C1196.2,2518.8 1196.2,2518.08 1196.17,2517.4C1197.19,2516.91 1198.18,2516.6 1199.24,2516.6C1201.55,2516.6 1202.8,2517.7 1202.8,2520.36L1202.8,2523.09C1202.8,2524.3 1202.77,2525.14 1202.69,2526.5L1202.62,2527.3C1202.54,2528.47 1202.35,2528.66 1201.29,2528.85L1200.53,2529.01L1200.53,2530.52C1202.24,2530.49 1203.41,2530.45 1205.12,2530.45C1206.83,2530.45 1208.49,2530.49 1210.2,2530.52L1210.2,2529.01L1209.1,2528.82C1207.96,2528.63 1207.66,2528.4 1207.58,2527.22L1207.51,2526.43C1207.43,2525.1 1207.39,2523.92 1207.39,2522.71C1207.39,2521.61 1207.43,2520.24 1207.43,2518.76C1207.43,2515.01 1205.42,2512.66 1202.08,2512.66C1199.96,2512.66 1197.8,2513.68 1196.17,2515.62C1196.2,2514.63 1196.2,2513.49 1196.2,2512.66L1196.2,2511.75C1196.2,2508.64 1196.24,2505.45 1196.39,2502.34C1194.31,2502.87 1191.8,2503.4 1189.64,2503.82L1188.81,2504.01L1188.81,2505.34L1189.79,2505.49C1190.93,2505.72 1191.27,2505.98 1191.39,2507.16L1191.46,2507.99C1191.58,2509.36 1191.61,2510.53 1191.61,2511.75L1191.61,2522.71C1191.61,2523.92 1191.58,2525.06 1191.46,2526.43L1191.39,2527.22C1191.27,2528.4 1190.93,2528.63 1189.79,2528.82L1188.81,2529.01L1188.81,2530.52Z" style="fill:rgb(195,173,139);fill-rule:nonzero;"/>
                <path d="M1212.93,2527.91C1212.93,2529.58 1214.22,2530.9 1216.27,2530.9C1218.24,2530.9 1219.8,2529.54 1219.8,2527.6C1219.8,2525.93 1218.55,2524.64 1216.5,2524.64C1214.49,2524.64 1212.93,2525.97 1212.93,2527.91Z" style="fill:rgb(195,173,139);fill-rule:nonzero;"/>
            </g>
            <g transform="matrix(1.46923,0,0,1.46923,87.9996,-1795.98)">
                <path d="M1048.57,2528.28L1049.17,2526.27C1047.54,2526.99 1046.06,2527.34 1044.28,2527.34C1040.83,2527.34 1038.59,2525.33 1038.52,2521.34L1049.25,2521.34C1050.28,2515.96 1047.35,2512.66 1042.8,2512.66C1037.34,2512.66 1033.66,2517.25 1033.66,2522.67C1033.66,2527.72 1037.11,2530.9 1042.04,2530.9C1044.74,2530.9 1047.05,2529.92 1048.57,2528.28ZM1041.89,2515.8C1043.79,2515.8 1044.7,2516.91 1044.85,2519.75L1038.55,2519.75C1038.89,2516.98 1040.18,2515.8 1041.89,2515.8Z" style="fill:rgb(195,173,139);fill-rule:nonzero;"/>
                <path d="M1052.55,2530.41C1054.07,2530.75 1055.4,2530.86 1056.91,2530.86C1062.15,2530.86 1065.22,2528.59 1065.22,2525.06C1065.22,2519.3 1056.61,2519.98 1056.61,2517.17C1056.61,2516.37 1057.41,2515.65 1059.04,2515.65C1060.52,2515.65 1062.53,2516.11 1064.46,2516.83L1063.86,2513.07C1062.98,2512.81 1061.65,2512.66 1060.44,2512.66C1055.05,2512.66 1052.29,2514.93 1052.29,2518.27C1052.29,2523.85 1060.9,2522.94 1060.9,2526.16C1060.9,2527.22 1060.1,2527.87 1058.32,2527.87C1056.5,2527.87 1054.3,2527.45 1051.94,2526.62L1052.55,2530.41Z" style="fill:rgb(195,173,139);fill-rule:nonzero;"/>
                <path d="M1068.33,2530.41C1069.85,2530.75 1071.18,2530.86 1072.69,2530.86C1077.93,2530.86 1081,2528.59 1081,2525.06C1081,2519.3 1072.39,2519.98 1072.39,2517.17C1072.39,2516.37 1073.19,2515.65 1074.82,2515.65C1076.3,2515.65 1078.31,2516.11 1080.24,2516.83L1079.63,2513.07C1078.76,2512.81 1077.43,2512.66 1076.22,2512.66C1070.84,2512.66 1068.07,2514.93 1068.07,2518.27C1068.07,2523.85 1076.68,2522.94 1076.68,2526.16C1076.68,2527.22 1075.88,2527.87 1074.1,2527.87C1072.28,2527.87 1070.08,2527.45 1067.72,2526.62L1068.33,2530.41Z" style="fill:rgb(195,173,139);fill-rule:nonzero;"/>
                <path d="M1098.41,2528.28L1099.02,2526.27C1097.39,2526.99 1095.91,2527.34 1094.13,2527.34C1090.67,2527.34 1088.44,2525.33 1088.36,2521.34L1099.1,2521.34C1100.12,2515.96 1097.2,2512.66 1092.65,2512.66C1087.18,2512.66 1083.5,2517.25 1083.5,2522.67C1083.5,2527.72 1086.96,2530.9 1091.89,2530.9C1094.58,2530.9 1096.89,2529.92 1098.41,2528.28ZM1091.74,2515.8C1093.63,2515.8 1094.54,2516.91 1094.69,2519.75L1088.4,2519.75C1088.74,2516.98 1090.03,2515.8 1091.74,2515.8Z" style="fill:rgb(195,173,139);fill-rule:nonzero;"/>
                <path d="M1101.9,2530.52C1103.61,2530.49 1105.16,2530.45 1106.87,2530.45C1108.58,2530.45 1109.87,2530.49 1111.58,2530.52L1111.58,2529.01L1110.7,2528.85C1109.68,2528.7 1109.49,2528.51 1109.41,2527.34L1109.38,2526.5C1109.34,2525.21 1109.3,2524.3 1109.3,2523.09L1109.3,2520.36C1109.3,2519.26 1109.3,2518.46 1109.22,2517.4C1110.25,2516.91 1111.23,2516.6 1112.33,2516.6C1114.65,2516.6 1115.9,2517.7 1115.9,2520.36L1115.9,2523.09C1115.9,2524.3 1115.86,2525.14 1115.79,2526.5L1115.71,2527.3C1115.63,2528.47 1115.44,2528.66 1114.38,2528.85L1113.62,2529.01L1113.62,2530.52C1115.33,2530.49 1116.51,2530.45 1118.21,2530.45C1119.92,2530.45 1121.59,2530.49 1123.3,2530.52L1123.3,2529.01L1122.2,2528.82C1121.06,2528.63 1120.76,2528.4 1120.68,2527.22L1120.6,2526.43C1120.53,2525.1 1120.49,2523.92 1120.49,2522.71C1120.49,2521.61 1120.53,2520.24 1120.53,2518.76C1120.53,2515.01 1118.52,2512.66 1115.18,2512.66C1113.02,2512.66 1110.78,2513.76 1109.11,2515.8L1108.43,2512.66C1106.42,2513.22 1104.22,2513.79 1102.66,2514.14L1101.9,2514.33L1101.9,2515.65L1102.89,2515.8C1104.03,2516.03 1104.37,2516.3 1104.48,2517.47L1104.56,2518.31C1104.67,2519.67 1104.71,2520.85 1104.71,2522.06L1104.71,2522.71C1104.71,2523.92 1104.67,2525.06 1104.56,2526.43L1104.48,2527.22C1104.37,2528.4 1104.03,2528.63 1102.89,2528.82L1101.9,2529.01L1101.9,2530.52Z" style="fill:rgb(195,173,139);fill-rule:nonzero;"/>
                <path d="M1126.03,2527.91C1126.03,2529.58 1127.32,2530.9 1129.37,2530.9C1131.34,2530.9 1132.89,2529.54 1132.89,2527.6C1132.89,2525.93 1131.64,2524.64 1129.59,2524.64C1127.58,2524.64 1126.03,2525.97 1126.03,2527.91Z" style="fill:rgb(195,173,139);fill-rule:nonzero;"/>
            </g>
            <g transform="matrix(0.392531,0,0,0.232003,503.832,1375.84)">
                <path d="M2827.38,1947.44C2827.35,1947.45 2827.31,1947.46 2827.28,1947.47C2824.18,1948.41 2820.98,1948.9 2817.73,1948.93L2817.71,1948.93C2817.57,1948.94 2817.48,1948.93 2817.38,1948.93C2817.33,1948.93 2817.29,1948.93 2817.24,1948.93L2817.03,1948.93C2814,1948.9 2811.02,1948.47 2808.12,1947.66C2808.09,1947.65 2808.07,1947.64 2808.04,1947.63C2794.25,1943.78 2781.58,1932.01 2773.36,1914.28C2773.29,1914.11 2762.93,1889.06 2762.05,1886.92C2760.82,1883.66 2759.59,1880.48 2758.37,1877.38C2760.41,1860.69 2761.63,1841.64 2761.63,1819.65L2761.63,1372.72C2761.63,1331.71 2781.28,1298.46 2805.52,1298.46L2829.25,1298.46C2853.49,1298.46 2873.14,1331.71 2873.14,1372.72L2873.14,1819.65C2873.14,1841.84 2874.38,1861.03 2876.45,1877.84C2875.47,1880.2 2874.48,1882.61 2873.49,1885.07C2872.57,1887.3 2862.37,1911.96 2861.36,1914.4C2853.24,1931.81 2840.87,1943.41 2827.38,1947.44Z" style="fill:none;"/>
                <clipPath id="_clip1">
                    <path d="M2827.38,1947.44C2827.35,1947.45 2827.31,1947.46 2827.28,1947.47C2824.18,1948.41 2820.98,1948.9 2817.73,1948.93L2817.71,1948.93C2817.57,1948.94 2817.48,1948.93 2817.38,1948.93C2817.33,1948.93 2817.29,1948.93 2817.24,1948.93L2817.03,1948.93C2814,1948.9 2811.02,1948.47 2808.12,1947.66C2808.09,1947.65 2808.07,1947.64 2808.04,1947.63C2794.25,1943.78 2781.58,1932.01 2773.36,1914.28C2773.29,1914.11 2762.93,1889.06 2762.05,1886.92C2760.82,1883.66 2759.59,1880.48 2758.37,1877.38C2760.41,1860.69 2761.63,1841.64 2761.63,1819.65L2761.63,1372.72C2761.63,1331.71 2781.28,1298.46 2805.52,1298.46L2829.25,1298.46C2853.49,1298.46 2873.14,1331.71 2873.14,1372.72L2873.14,1819.65C2873.14,1841.84 2874.38,1861.03 2876.45,1877.84C2875.47,1880.2 2874.48,1882.61 2873.49,1885.07C2872.57,1887.3 2862.37,1911.96 2861.36,1914.4C2853.24,1931.81 2840.87,1943.41 2827.38,1947.44Z"/>
                </clipPath>
                <g clip-path="url(#_clip1)">
                    <g transform="matrix(0.687025,0,0,0.638321,849.905,582.639)">
                        <g transform="matrix(0.496325,-0.484826,0.364769,1.06895,1900.63,101.052)">
                            <path d="M834.121,1254.74L906.715,1404.16L834.121,1553.58L761.528,1404.16L834.121,1254.74Z" style="fill:rgb(0,56,101);"/>
                        </g>
                        <g transform="matrix(0.496325,-0.484826,0.364769,1.06895,2009.64,420.502)">
                            <path d="M834.121,1254.74L906.715,1404.16L834.121,1553.58L761.528,1404.16L834.121,1254.74Z" style="fill:rgb(0,56,101);"/>
                        </g>
                        <g transform="matrix(0.496325,-0.484826,0.364769,1.06895,1756.51,241.833)">
                            <path d="M834.121,1254.74L906.715,1404.16L834.121,1553.58L761.528,1404.16L834.121,1254.74Z" style="fill:rgb(0,56,101);"/>
                        </g>
                        <g transform="matrix(0.496325,-0.484826,0.364769,1.06895,1865.52,561.283)">
                            <path d="M834.121,1254.74L906.715,1404.16L834.121,1553.58L761.528,1404.16L834.121,1254.74Z" style="fill:rgb(0,56,101);"/>
                        </g>
                        <g transform="matrix(0.496325,-0.484826,0.364769,1.06895,1828.57,171.443)">
                            <path d="M834.121,1254.74L906.715,1404.16L834.121,1553.58L761.528,1404.16L834.121,1254.74Z" style="fill:rgb(0,56,101);"/>
                        </g>
                        <g transform="matrix(0.496325,-0.484826,0.364769,1.06895,1937.58,490.892)">
                            <path d="M834.121,1254.74L906.715,1404.16L834.121,1553.58L761.528,1404.16L834.121,1254.74Z" style="fill:rgb(0,56,101);"/>
                        </g>
                        <g transform="matrix(0.496325,-0.484826,0.364769,1.06895,1684.45,312.224)">
                            <path d="M834.121,1254.74L906.715,1404.16L834.121,1553.58L761.528,1404.16L834.121,1254.74Z" style="fill:rgb(0,56,101);"/>
                        </g>
                        <g transform="matrix(0.496325,-0.484826,0.364769,1.06895,1793.46,631.673)">
                            <path d="M834.121,1254.74L906.715,1404.16L834.121,1553.58L761.528,1404.16L834.121,1254.74Z" style="fill:rgb(0,56,101);"/>
                        </g>
                        <g transform="matrix(0.496325,-0.484826,0.364769,1.06895,1972.69,30.662)">
                            <path d="M834.121,1254.74L906.715,1404.16L834.121,1553.58L761.528,1404.16L834.121,1254.74Z" style="fill:rgb(0,56,101);"/>
                        </g>
                        <g transform="matrix(0.496325,-0.484826,0.364769,1.06895,2081.7,350.111)">
                            <path d="M834.121,1254.74L906.715,1404.16L834.121,1553.58L761.528,1404.16L834.121,1254.74Z" style="fill:rgb(0,56,101);"/>
                        </g>
                        <g transform="matrix(0.496325,-0.484826,0.364769,1.06895,2118.65,739.951)">
                            <path d="M834.121,1254.74L906.715,1404.16L834.121,1553.58L761.528,1404.16L834.121,1254.74Z" style="fill:rgb(0,56,101);"/>
                        </g>
                        <g transform="matrix(0.496325,-0.484826,0.364769,1.06895,1974.53,880.732)">
                            <path d="M834.121,1254.74L906.715,1404.16L834.121,1553.58L761.528,1404.16L834.121,1254.74Z" style="fill:rgb(0,56,101);"/>
                        </g>
                        <g transform="matrix(0.496325,-0.484826,0.364769,1.06895,2046.59,810.342)">
                            <path d="M834.121,1254.74L906.715,1404.16L834.121,1553.58L761.528,1404.16L834.121,1254.74Z" style="fill:rgb(0,56,101);"/>
                        </g>
                        <g transform="matrix(0.496325,-0.484826,0.364769,1.06895,1902.47,951.123)">
                            <path d="M834.121,1254.74L906.715,1404.16L834.121,1553.58L761.528,1404.16L834.121,1254.74Z" style="fill:rgb(0,56,101);"/>
                        </g>
                        <g transform="matrix(0.496325,-0.484826,0.364769,1.06895,2190.71,669.561)">
                            <path d="M834.121,1254.74L906.715,1404.16L834.121,1553.58L761.528,1404.16L834.121,1254.74Z" style="fill:rgb(0,56,101);"/>
                        </g>
                    </g>
                </g>
            </g>
        </g>
        <g transform="matrix(0.538465,0,0,0.538465,5265.94,2796.94)">
            <path d="M6328.55,7972.9C6327.16,7972.13 6325.3,7969.33 6324.06,7965.45L6316.02,7939.67C6323.29,7933.93 6326.85,7927.09 6326.85,7919.48C6326.85,7907.08 6317.72,7897.65 6302.39,7897.65L6277.47,7897.65L6277.16,7899.95C6278.86,7900.73 6280.26,7903.83 6280.26,7907.71L6280.26,7965.14C6280.26,7969.02 6278.86,7972.13 6277.16,7972.9L6277.47,7975.21L6298.51,7975.21L6298.82,7972.9C6297.12,7972.13 6295.72,7969.02 6295.72,7965.14L6295.72,7947.91C6298.36,7947.6 6300.69,7947.14 6302.55,7946.36L6308.28,7965.76C6308.59,7966.7 6308.75,7967.47 6308.75,7968.25C6308.75,7970.58 6307.66,7972.28 6306.42,7972.9L6306.73,7975.21L6328.24,7975.21L6328.55,7972.9ZM6295.72,7911.56L6301.61,7911.56C6307.35,7911.56 6310.61,7914.98 6310.61,7919.79C6310.61,7926.63 6303.79,7932.99 6295.72,7935.01L6295.72,7911.56Z" style="fill:rgb(195,173,139);fill-rule:nonzero;"/>
            <path d="M6379.5,7957.73C6378.41,7959.43 6375.32,7961.29 6371.45,7961.29L6356.89,7961.29L6356.89,7942.22L6362.47,7942.22C6365.88,7942.22 6368.21,7943.46 6369.61,7945.79L6371.91,7945.48L6371.91,7925.02L6369.61,7924.71C6368.21,7927.06 6365.88,7928.31 6362.47,7928.31L6356.89,7928.31L6356.89,7911.56L6371.45,7911.56C6375.32,7911.56 6378.41,7913.44 6379.5,7915.16L6381.82,7914.85L6380.43,7897.65L6338.64,7897.65L6338.33,7899.95C6340.03,7900.73 6341.42,7903.85 6341.42,7907.74L6341.42,7965.16C6341.42,7969.02 6340.03,7972.11 6338.33,7972.89L6338.64,7975.21L6380.43,7975.21L6381.82,7958.03L6379.5,7957.73Z" style="fill:rgb(195,173,139);fill-rule:nonzero;"/>
            <path d="M6435.55,7951.84C6435.55,7942.08 6429.98,7934.03 6419,7927.99C6409.54,7922.56 6407.06,7920.86 6407.06,7916.52C6407.06,7912.34 6409.85,7910.17 6415.43,7910.17C6421.64,7910.17 6425.82,7912.8 6427.83,7918.23L6429.82,7918.23L6429.82,7896.56L6427.52,7896.25C6427.21,7896.87 6426.44,7897.18 6425.04,7897.18C6424.58,7897.18 6423.65,7897.03 6422.25,7896.87C6420.55,7896.41 6418.38,7896.25 6416.05,7896.25C6401.03,7896.25 6391.59,7905.38 6391.59,7917.92C6391.59,7926.75 6396.7,7932.17 6406.75,7937.74C6415.43,7942.55 6420.09,7947.04 6420.09,7953.08C6420.09,7958.5 6416.36,7963.15 6410.16,7963.15C6405.67,7963.15 6403.03,7960.36 6403.03,7956.63C6403.03,7954 6404.27,7951.36 6408.46,7950.9C6407.68,7945.49 6403.81,7942.4 6398.86,7942.4C6392.05,7942.4 6388.03,7948.58 6388.03,7956.17C6388.03,7966.7 6395.92,7977.07 6410.16,7977.07C6424.57,7977.07 6435.55,7965.62 6435.55,7951.84Z" style="fill:rgb(195,173,139);fill-rule:nonzero;"/>
            <path d="M6494.7,7914.82L6493.31,7897.65L6446.26,7897.65L6444.86,7914.82L6447.19,7915.14C6448.27,7913.43 6451.37,7911.56 6455.24,7911.56L6462.05,7911.56L6462.05,7965.14C6462.05,7969.02 6460.66,7972.13 6458.95,7972.9L6459.26,7975.21L6480.3,7975.21L6480.61,7972.9C6478.91,7972.13 6477.52,7969.02 6477.52,7965.14L6477.52,7911.56L6484.33,7911.56C6488.2,7911.56 6491.3,7913.43 6492.38,7915.14L6494.7,7914.82Z" style="fill:rgb(195,173,139);fill-rule:nonzero;"/>
            <path d="M6556.03,7972.9C6554.01,7971.82 6552.93,7970.43 6552.46,7968.41L6538.84,7897.65L6511.91,7897.65L6511.6,7899.95C6512.99,7900.73 6514.54,7903.05 6513.92,7905.68L6501.85,7968.41C6501.54,7970.12 6500.3,7971.51 6498.28,7972.9L6498.6,7975.21L6518.41,7975.21L6518.72,7972.9C6517.32,7972.9 6516.4,7971.05 6516.4,7968.57C6516.4,7967.64 6516.4,7966.86 6516.55,7966.4L6517.64,7960.2L6534.66,7957.41L6536.21,7966.4C6536.36,7966.86 6536.36,7967.48 6536.36,7968.26C6536.36,7970.74 6535.59,7972.28 6534.04,7972.9L6534.35,7975.21L6555.72,7975.21L6556.03,7972.9ZM6526.46,7910.95L6532.49,7945.18L6519.96,7946.88L6526.46,7910.95Z" style="fill:rgb(195,173,139);fill-rule:nonzero;"/>
            <path d="M6615.49,7956.63C6613.63,7955.54 6612.39,7954.14 6612.39,7950.26L6612.39,7907.72C6612.39,7903.83 6613.78,7900.73 6615.49,7899.95L6615.18,7897.65L6595.68,7897.65L6595.37,7899.95C6597.08,7900.73 6598.47,7903.83 6598.47,7907.72L6598.47,7953.52C6598.47,7959.11 6594.75,7962.84 6589.95,7962.84C6585.14,7962.84 6581.42,7959.11 6581.42,7953.52L6581.42,7907.72C6581.42,7903.83 6582.82,7900.73 6584.52,7899.95L6584.21,7897.65L6563.17,7897.65L6562.86,7899.95C6564.56,7900.73 6565.95,7903.83 6565.95,7907.72L6565.95,7950.26C6565.95,7954.14 6564.72,7955.54 6562.86,7956.63L6563.17,7958.96C6564.56,7958.96 6565.8,7960.35 6568.43,7964.54L6570.59,7967.63C6574.77,7973.2 6581.73,7976.76 6589.17,7976.76C6596.61,7976.76 6603.57,7973.2 6607.75,7967.63L6609.91,7964.54C6612.54,7960.66 6613.78,7958.96 6615.18,7958.96L6615.49,7956.63Z" style="fill:rgb(195,173,139);fill-rule:nonzero;"/>
            <path d="M6679.28,7972.9C6677.89,7972.13 6676.03,7969.33 6674.8,7965.45L6666.76,7939.67C6674.02,7933.93 6677.58,7927.09 6677.58,7919.48C6677.58,7907.08 6668.46,7897.65 6653.12,7897.65L6628.2,7897.65L6627.89,7899.95C6629.6,7900.73 6630.99,7903.83 6630.99,7907.71L6630.99,7965.14C6630.99,7969.02 6629.6,7972.13 6627.89,7972.9L6628.2,7975.21L6649.25,7975.21L6649.56,7972.9C6647.85,7972.13 6646.46,7969.02 6646.46,7965.14L6646.46,7947.91C6649.09,7947.6 6651.42,7947.14 6653.28,7946.36L6659.02,7965.76C6659.33,7966.7 6659.48,7967.47 6659.48,7968.25C6659.48,7970.58 6658.4,7972.28 6657.15,7972.9L6657.47,7975.21L6678.98,7975.21L6679.28,7972.9ZM6646.46,7911.56L6652.35,7911.56C6658.09,7911.56 6661.34,7914.98 6661.34,7919.79C6661.34,7926.63 6654.52,7932.99 6646.46,7935.01L6646.46,7911.56Z" style="fill:rgb(195,173,139);fill-rule:nonzero;"/>
            <path d="M6743.08,7972.9C6741.07,7971.82 6739.99,7970.43 6739.52,7968.41L6725.9,7897.65L6698.97,7897.65L6698.65,7899.95C6700.05,7900.73 6701.6,7903.05 6700.98,7905.68L6688.9,7968.41C6688.59,7970.12 6687.36,7971.51 6685.34,7972.9L6685.65,7975.21L6705.47,7975.21L6705.78,7972.9C6704.38,7972.9 6703.45,7971.05 6703.45,7968.57C6703.45,7967.64 6703.45,7966.86 6703.61,7966.4L6704.69,7960.2L6721.72,7957.41L6723.27,7966.4C6723.42,7966.86 6723.42,7967.48 6723.42,7968.26C6723.42,7970.74 6722.65,7972.28 6721.1,7972.9L6721.41,7975.21L6742.77,7975.21L6743.08,7972.9ZM6713.52,7910.95L6719.55,7945.18L6707.01,7946.88L6713.52,7910.95Z" style="fill:rgb(195,173,139);fill-rule:nonzero;"/>
            <path d="M6805.02,7972.9C6803.01,7971.82 6801.93,7969.49 6801.93,7966.07L6801.93,7907.71C6801.93,7903.83 6803.32,7900.73 6805.02,7899.95L6804.71,7897.65L6785.22,7897.65L6784.91,7899.95C6786.61,7900.73 6788.01,7903.83 6788.01,7907.71L6788.01,7929.13C6786.46,7927.11 6783.98,7924.16 6780.57,7920.28C6772.66,7911.44 6769.41,7907.09 6769.41,7902.12C6769.41,7900.73 6769.87,7899.95 6770.96,7899.95L6770.65,7897.65L6752.7,7897.65L6752.39,7899.95C6754.1,7900.73 6755.49,7903.83 6755.49,7907.71L6755.49,7965.14C6755.49,7969.02 6754.1,7972.13 6752.39,7972.9L6752.7,7975.21L6772.2,7975.21L6772.51,7972.9C6770.8,7972.13 6769.41,7969.02 6769.41,7965.14L6769.41,7932.39L6773.9,7937.82C6778.71,7943.57 6782.12,7948.38 6784.44,7952.41C6786.77,7956.3 6788.01,7960.8 6788.01,7965.92C6788.01,7969.49 6786.92,7971.82 6784.91,7972.9L6785.22,7975.21L6804.71,7975.21L6805.02,7972.9Z" style="fill:rgb(195,173,139);fill-rule:nonzero;"/>
            <path d="M6865.72,7914.82L6864.33,7897.65L6817.27,7897.65L6815.88,7914.82L6818.2,7915.14C6819.29,7913.43 6822.38,7911.56 6826.26,7911.56L6833.07,7911.56L6833.07,7965.14C6833.07,7969.02 6831.68,7972.13 6829.97,7972.9L6830.28,7975.21L6851.32,7975.21L6851.63,7972.9C6849.93,7972.13 6848.53,7969.02 6848.53,7965.14L6848.53,7911.56L6855.35,7911.56C6859.22,7911.56 6862.32,7913.43 6863.4,7915.14L6865.72,7914.82Z" style="fill:rgb(195,173,139);fill-rule:nonzero;"/>
        </g>
    </g>
</svg>
